<svg width="140" height="138" viewBox="0 0 140 138" fill="none" xmlns="http://www.w3.org/2000/svg">
<g clip-path="url(#clip0)">
<path d="M123.488 52.5385C115.649 22.5455 88.5617 0.894821 56.7672 0.0264295C39.9584 -0.432662 22.2708 4.99144 9.39297 23.9723C-13.6276 57.9028 10.8076 81.3497 27.8432 92.4913C36.0735 97.8848 43.4894 104.37 49.8761 111.759C61.3831 125.045 83.5199 141.555 109.884 115.687C128.992 96.9377 128.71 72.5167 123.488 52.5385Z" fill="#F2F2F2"/>
<path d="M136.894 121.6C136.894 127.512 108.321 138 73.0747 138C37.8283 138 12.6008 116.745 12.6008 110.834C12.6008 104.922 37.8283 116.592 73.0747 116.592C108.321 116.592 136.894 115.688 136.894 121.6Z" fill="#3F3D56"/>
<path opacity="0.1" d="M136.894 121.6C136.894 127.512 108.321 138 73.0747 138C37.8283 138 12.6008 116.745 12.6008 110.834C12.6008 104.922 37.8283 116.592 73.0747 116.592C108.321 116.592 136.894 115.688 136.894 121.6Z" fill="black"/>
<path d="M136.894 121.537C136.894 127.449 108.321 132.241 73.0747 132.241C37.8283 132.241 12.6008 116.745 12.6008 110.834C12.6008 104.922 37.8283 110.834 73.0747 110.834C108.321 110.834 136.894 115.626 136.894 121.537Z" fill="#3F3D56"/>
<g opacity="0.7">
<path opacity="0.7" d="M134.781 32.2186C132.466 36.5903 125.13 41.7417 120.636 39.4894C116.143 37.237 116.196 28.4339 118.51 24.0623C119.622 21.9633 121.546 20.3801 123.857 19.6607C126.169 18.9413 128.679 19.1447 130.837 20.2262C132.994 21.3077 134.622 23.1787 135.361 25.4276C136.101 27.6766 135.892 30.1193 134.781 32.2186Z" fill="#00B0FF"/>
<path opacity="0.7" d="M121.017 40.6454C120.872 40.3715 120.643 40.1485 120.362 40.0075C120.081 39.8665 119.761 39.8147 119.448 39.8592L120.256 38.3333L121.825 39.1195L121.017 40.6454Z" fill="#00B0FF"/>
<path opacity="0.7" d="M119.874 39.066C120.054 39.3082 120.29 39.5053 120.564 39.6412C120.838 39.777 121.141 39.8476 121.448 39.8473" stroke="#2F2E41" stroke-width="2" stroke-miterlimit="10"/>
<path opacity="0.4" d="M133.51 27.3575C134.096 26.2514 133.803 24.9698 132.855 24.4949C131.908 24.02 130.665 24.5317 130.08 25.6378C129.494 26.7439 129.787 28.0255 130.734 28.5004C131.682 28.9753 132.924 28.4636 133.51 27.3575Z" fill="white"/>
<path opacity="0.7" d="M120.594 39.5441L113.767 56.261" stroke="#2F2E41" stroke-width="2" stroke-miterlimit="10"/>
</g>
<path d="M136.223 59.0354C131.155 64.0102 118.921 67.9525 113.808 63.0213C108.695 58.0902 112.639 46.1529 117.707 41.1781C120.141 38.7905 123.45 37.4413 126.907 37.4271C130.363 37.4128 133.683 38.7348 136.138 41.1023C138.593 43.4698 139.981 46.6889 139.997 50.0518C140.013 53.4148 138.655 56.6461 136.223 59.0354Z" fill="#FF6584"/>
<path d="M113.816 64.7501C113.74 64.3179 113.527 63.9196 113.207 63.611C112.887 63.3023 112.476 63.0988 112.031 63.0289L113.8 61.2925L115.585 63.0137L113.816 64.7501Z" fill="#FF6584"/>
<path d="M112.958 62.1285C113.096 62.5325 113.331 62.8989 113.643 63.1974C113.955 63.4959 114.335 63.7181 114.753 63.8456" stroke="#2F2E41" stroke-width="2" stroke-miterlimit="10"/>
<path d="M113.467 63.4408L96.6623 79.9365" stroke="#2F2E41" stroke-width="2" stroke-miterlimit="10"/>
<path opacity="0.4" d="M136.634 51.9022C137.917 50.6435 138.082 48.7803 137.004 47.7406C135.926 46.7009 134.013 46.8785 132.731 48.1371C131.448 49.3958 131.283 51.259 132.361 52.2987C133.439 53.3384 135.352 53.1609 136.634 51.9022Z" fill="white"/>
<path d="M120.382 42.919C118.712 49.7325 110.37 59.2897 103.367 57.6648C96.3643 56.0399 93.3528 43.8482 95.0228 37.0347C95.8267 33.7647 97.9322 30.939 100.876 29.1789C103.821 27.4187 107.363 26.8681 110.724 27.6481C114.086 28.428 116.991 30.4747 118.802 33.3383C120.613 36.2019 121.181 39.6479 120.382 42.919Z" fill="#00B0FF"/>
<path d="M104.298 59.1375C104.002 58.8067 103.607 58.5741 103.169 58.4724C102.731 58.3707 102.271 58.4049 101.853 58.5703L102.436 56.1921L104.881 56.7593L104.298 59.1375Z" fill="#00B0FF"/>
<path d="M102.164 57.3324C102.498 57.6076 102.894 57.8017 103.32 57.8988C103.746 57.9959 104.19 57.9931 104.615 57.8908" stroke="#2F2E41" stroke-width="2" stroke-miterlimit="10"/>
<path opacity="0.4" d="M116.921 36.6177C117.344 34.8938 116.49 33.2186 115.013 32.876C113.537 32.5334 111.997 33.6532 111.575 35.3771C111.152 37.101 112.006 38.7762 113.483 39.1188C114.959 39.4614 116.499 38.3416 116.921 36.6177Z" fill="white"/>
<path d="M103.328 58.1925L97.7906 80.7853" stroke="#2F2E41" stroke-width="2" stroke-miterlimit="10"/>
<g opacity="0.8">
<path opacity="0.8" d="M42.7614 102.662C39.1211 106.109 30.4394 108.738 26.8971 105.197C23.3547 101.655 26.293 93.2824 29.9334 89.8357C30.7989 89.0162 31.822 88.3705 32.944 87.9357C34.066 87.5008 35.2651 87.2852 36.4728 87.3012C37.6804 87.3173 38.873 87.5646 39.9825 88.0291C41.0919 88.4935 42.0964 89.1661 42.9387 90.0083C43.781 90.8505 44.4446 91.8459 44.8915 92.9376C45.3385 94.0293 45.56 95.196 45.5436 96.371C45.5271 97.546 45.2729 98.7064 44.7955 99.7859C44.3182 100.865 43.627 101.843 42.7614 102.662Z" fill="#00B0FF"/>
<path opacity="0.8" d="M26.88 106.416C26.8322 106.11 26.6873 105.827 26.4656 105.605C26.2439 105.383 25.9565 105.235 25.6436 105.18L26.9142 103.977L28.1506 105.213L26.88 106.416Z" fill="#00B0FF"/>
<path opacity="0.8" d="M26.309 104.556C26.4012 104.843 26.562 105.104 26.7783 105.319C26.9945 105.533 27.26 105.695 27.5529 105.79" stroke="#2F2E41" stroke-width="2" stroke-miterlimit="10"/>
<path opacity="0.4" d="M43.1453 97.6353C44.0663 96.7632 44.2075 95.4509 43.4606 94.7041C42.7137 93.9573 41.3616 94.0589 40.4406 94.9309C39.5195 95.8029 39.3783 97.1153 40.1252 97.862C40.8721 98.6088 42.2242 98.5073 43.1453 97.6353Z" fill="white"/>
</g>
<path d="M82.2704 30.0295H84.8279C86.5057 30.0295 88.1148 30.678 89.3012 31.8323C90.4876 32.9867 91.1541 34.5523 91.1541 36.1848V44.8284H75.9442V36.1848C75.9442 35.3765 76.1078 34.576 76.4258 33.8293C76.7437 33.0825 77.2097 32.4039 77.7971 31.8323C78.3846 31.2608 79.082 30.8074 79.8495 30.4981C80.617 30.1887 81.4397 30.0295 82.2704 30.0295Z" fill="#2F2E41"/>
<path d="M75.0112 68.5632L73.0917 72.4899C73.0917 72.4899 71.5271 77.7648 73.2999 78.3287C75.0727 78.8926 75.4187 72.9156 75.4187 72.9156L76.887 68.9577L75.0112 68.5632Z" fill="#FFB9B9"/>
<path opacity="0.1" d="M75.0112 68.5632L73.0917 72.4899C73.0917 72.4899 71.5271 77.7648 73.2999 78.3287C75.0727 78.8926 75.4187 72.9156 75.4187 72.9156L76.887 68.9577L75.0112 68.5632Z" fill="black"/>
<path d="M75.3747 62.4175L72.947 70.6845L76.7909 72.6528V62.8111L75.3747 62.4175Z" fill="#575A89"/>
<path d="M81.9494 40.4705C81.9494 40.4705 81.7471 43.6198 81.3425 43.6198C80.9379 43.6198 80.1287 47.3597 80.1287 47.3597L83.5678 49.5248L87.8162 45.785L86.6023 42.8325C86.6023 42.8325 85.9954 41.6515 86.1977 40.4705C86.4 39.2895 81.9494 40.4705 81.9494 40.4705Z" fill="#FFB9B9"/>
<path opacity="0.1" d="M81.9494 40.4705C81.9494 40.4705 81.7471 43.6198 81.3425 43.6198C80.9379 43.6198 80.1287 47.3597 80.1287 47.3597L83.5678 49.5248L87.8162 45.785L86.6023 42.8325C86.6023 42.8325 85.9954 41.6515 86.1977 40.4705C86.4 39.2895 81.9494 40.4705 81.9494 40.4705Z" fill="black"/>
<path d="M94.6944 71.7671L95.099 76.0974C95.099 76.0974 96.515 81.412 98.3357 81.0183C100.156 80.6246 97.3242 75.3101 97.3242 75.3101L96.515 71.1766L94.6944 71.7671Z" fill="#FFB9B9"/>
<path d="M85.9955 114.48C85.9955 114.48 87.2093 121.763 86.4001 123.141C85.5909 124.519 87.2093 124.715 87.2093 124.715L92.0645 123.534V121.369C92.0645 121.369 90.4461 114.283 90.4461 113.89C90.4461 113.496 85.9955 114.48 85.9955 114.48Z" fill="#FFB9B9"/>
<path d="M76.0828 81.8056C76.0828 81.8056 77.4989 95.9776 79.7242 100.505C81.9495 105.032 83.9725 117.433 84.984 117.629C85.9955 117.826 93.6828 116.448 94.6943 115.661C95.7058 114.874 87.8162 95.7808 87.8162 95.584C87.8162 95.3871 85.9954 77.8689 85.9954 77.8689L83.5678 73.9322L76.0828 81.8056Z" fill="#2F2E41"/>
<path opacity="0.1" d="M76.0828 81.8056C76.0828 81.8056 77.4989 95.9776 79.7242 100.505C81.9495 105.032 83.9725 117.433 84.984 117.629C85.9955 117.826 93.6828 116.448 94.6943 115.661C95.7058 114.874 87.8162 95.7808 87.8162 95.584C87.8162 95.3871 85.9954 77.8689 85.9954 77.8689L83.5678 73.9322L76.0828 81.8056Z" fill="black"/>
<path d="M87.8162 122.747C87.8162 122.747 85.7932 121.763 85.3886 122.353L83.7702 124.715C83.7702 124.715 76.892 127.865 79.3196 128.258C81.7472 128.652 86.4001 128.652 87.007 128.258C87.6139 127.865 94.2898 124.322 94.0875 124.125C93.8852 123.928 92.2667 119.795 92.0645 120.188C91.8622 120.582 89.03 123.534 87.8162 122.747Z" fill="#2F2E41"/>
<path d="M53.8298 106.016C53.8298 106.016 49.1769 109.166 46.9516 108.575C44.7262 107.985 46.9516 112.905 46.9516 112.905L50.9976 115.071L52.2114 114.086C52.2114 114.086 56.4597 108.575 58.2804 108.378C60.1011 108.181 53.8298 106.016 53.8298 106.016Z" fill="#FFB9B9"/>
<path d="M74.869 69.9956L75.6782 74.1291L60.5057 96.5681C60.5057 96.5681 51.4022 105.426 52.2114 106.41C53.0206 107.394 58.0781 113.102 59.2919 112.315C60.5057 111.528 88.6254 82.0024 88.4231 78.0658C88.2208 74.1291 81.5449 66.6494 81.5449 66.6494L74.869 69.6019V69.9956Z" fill="#2F2E41"/>
<path d="M47.9631 109.953C47.9631 109.953 49.7838 107.985 48.7723 107.788C47.6346 107.593 46.4863 107.461 45.3332 107.394C44.9286 107.394 39.4665 104.638 39.0619 105.623C38.6573 106.607 41.4895 111.724 43.1079 112.315C44.7263 112.905 50.593 117.039 50.593 117.039C50.593 117.039 53.6275 114.48 53.2229 113.89C52.8183 113.299 47.1539 112.118 47.9631 109.953Z" fill="#2F2E41"/>
<path d="M83.5679 42.4388C86.2493 42.4388 88.4231 40.3238 88.4231 37.7148C88.4231 35.1058 86.2493 32.9908 83.5679 32.9908C80.8864 32.9908 78.7127 35.1058 78.7127 37.7148C78.7127 40.3238 80.8864 42.4388 83.5679 42.4388Z" fill="#FFB9B9"/>
<path d="M84.5793 44.8008C84.5793 44.8008 81.1403 44.9977 80.1288 44.4072C79.1173 43.8167 76.8919 52.4774 76.8919 52.4774L75.4759 63.8938C75.4759 63.8938 75.2736 65.2716 75.4759 66.0589C75.6782 66.8463 73.4529 65.6653 74.262 67.8305C75.0712 69.9956 73.6552 70.9798 75.0713 71.1766C76.4874 71.3735 83.9724 68.421 83.9724 68.421L87.4115 50.9027L88.423 43.8167L84.5793 44.8008Z" fill="#D0CDE1"/>
<path d="M81.5878 43.2018C81.5878 43.2018 79.7242 42.8325 79.1173 43.2262C78.5104 43.6199 76.2851 46.5724 76.2851 47.3597C76.2851 48.147 75.4759 56.8077 75.4759 57.5951C75.4759 58.3824 74.869 62.5159 74.869 62.9096C74.869 63.3033 75.3879 64.9952 75.3879 64.9952L76.6897 62.7127C76.6897 62.7127 76.2851 59.7602 77.7012 55.0362C79.1173 50.3122 81.5878 43.2018 81.5878 43.2018Z" fill="#575A89"/>
<path d="M83.5679 46.1787C83.5679 46.1787 86.2704 42.0452 86.4364 42.4388C86.6024 42.8325 89.6369 43.423 89.6369 43.423C89.6369 43.423 95.0989 47.1629 94.6943 48.7375C94.2897 50.3122 91.4575 62.1222 91.4575 62.1222C91.4575 62.1222 88.8277 68.2241 90.8506 72.5544C92.8736 76.8848 90.446 78.4594 90.446 78.4594C90.446 78.4594 88.8277 79.2468 89.2323 80.0341C89.6369 80.8214 84.5794 83.774 83.9725 81.6088C83.3656 79.4436 75.8805 66.4526 77.4989 61.7286C79.1173 57.0046 83.5679 46.1787 83.5679 46.1787Z" fill="#575A89"/>
<path d="M93.6829 48.147C93.6829 48.147 95.9082 52.2805 95.5036 52.871C95.099 53.4615 96.9197 57.0046 96.9197 57.0046C96.7937 57.3212 96.7937 57.6721 96.9197 57.9887C97.122 58.5792 98.3358 61.1381 98.3358 62.1222C98.3358 63.1064 98.1335 66.2557 98.3358 67.6336C98.5381 69.0114 101.168 72.3576 98.9427 72.5544C96.7174 72.7513 93.076 74.5228 93.2783 72.5544C93.4806 70.5861 94.0875 65.8621 93.2783 65.0747C92.4691 64.2874 91.8622 64.2874 92.2668 63.3032C92.6714 62.3191 90.4461 59.7602 90.4461 59.7602L93.6829 48.147Z" fill="#575A89"/>
<path d="M87.6247 36.551H79.9457L78.2069 32.6632H88.9289L87.6247 36.551Z" fill="#2F2E41"/>
<path d="M78.9381 39.396C79.1432 39.3381 79.181 38.8598 79.0225 38.3276C78.864 37.7954 78.5692 37.4108 78.3641 37.4686C78.159 37.5264 78.1212 38.0048 78.2797 38.537C78.4382 39.0692 78.733 39.4538 78.9381 39.396Z" fill="#FFB9B9"/>
<path d="M88.6898 38.537C88.8483 38.0048 88.8105 37.5264 88.6054 37.4686C88.4002 37.4108 88.1055 37.7953 87.947 38.3276C87.7885 38.8598 87.8263 39.3381 88.0314 39.3959C88.2365 39.4538 88.5313 39.0692 88.6898 38.537Z" fill="#FFB9B9"/>
<path d="M134.069 113.418C134.069 117.99 131.276 119.587 127.83 119.587C127.75 119.587 127.67 119.586 127.591 119.585C127.431 119.58 127.273 119.573 127.117 119.562C124.006 119.349 121.591 117.67 121.591 113.418C121.591 109.019 127.368 103.467 127.804 103.055C127.804 103.055 127.804 103.055 127.804 103.054C127.804 103.054 127.805 103.054 127.805 103.054C127.805 103.054 127.805 103.054 127.805 103.054C127.805 103.054 127.805 103.054 127.805 103.053C127.821 103.039 127.83 103.03 127.83 103.03C127.83 103.03 134.069 108.846 134.069 113.418Z" fill="#F2F2F2"/>
<path d="M127.603 118.887L129.884 115.785L127.597 119.228L127.591 119.585C127.431 119.58 127.273 119.573 127.117 119.562L127.362 114.989L127.36 114.953L127.365 114.947L127.388 114.514L125.095 111.064L127.395 114.19L127.4 114.283L127.586 110.827L125.623 107.26L127.61 110.219L127.804 103.055L127.805 103.03V103.053L127.773 108.704L129.727 106.464L127.764 109.19L127.713 112.285L129.538 109.316L127.705 112.74L127.676 114.461L130.326 110.328L127.666 115.061L127.603 118.887Z" fill="#3F3D56"/>
</g>
<defs>
<clipPath id="clip0">
<rect width="140" height="138" fill="white"/>
</clipPath>
</defs>
</svg>
